<svg width="837.891" height="84.192" viewBox="0 0 837.891 84.192" xmlns="http://www.w3.org/2000/svg"><g id="svgGroup" stroke-linecap="round" fill-rule="evenodd" font-size="9pt" stroke="#ffffff" stroke-width="0" fill="#ffffff" style="stroke:#ffffff;stroke-width:0;fill:#ffffff"><path d="M 540.869 82.572 L 540.869 1.566 L 553.662 1.566 L 584.668 49.369 A 193.468 193.468 0 0 1 592.935 63.477 A 223.269 223.269 0 0 1 595.557 68.559 L 595.85 68.559 Q 595.068 48.393 595.068 40.678 L 595.068 1.566 L 604.053 1.566 L 604.053 82.572 L 595.557 82.572 L 559.375 26.762 A 176.3 176.3 0 0 1 554.754 19.258 Q 552.251 14.972 549.658 10.062 L 549.17 10.062 A 314.78 314.78 0 0 1 549.646 19.68 Q 549.799 24.002 549.875 28.849 A 650.429 650.429 0 0 1 549.951 39.066 L 549.951 82.572 L 540.869 82.572 Z M 622.852 82.572 L 622.852 1.566 L 635.645 1.566 L 666.65 49.369 A 193.468 193.468 0 0 1 674.918 63.477 A 223.269 223.269 0 0 1 677.539 68.559 L 677.832 68.559 Q 677.051 48.393 677.051 40.678 L 677.051 1.566 L 686.035 1.566 L 686.035 82.572 L 677.539 82.572 L 641.357 26.762 A 176.3 176.3 0 0 1 636.736 19.258 Q 634.234 14.972 631.641 10.062 L 631.152 10.062 A 314.78 314.78 0 0 1 631.628 19.68 Q 631.781 24.002 631.857 28.849 A 650.429 650.429 0 0 1 631.934 39.066 L 631.934 82.572 L 622.852 82.572 Z M 705.518 82.572 L 705.518 1.566 L 758.203 1.566 L 758.203 9.574 L 714.6 9.574 L 714.6 36.674 L 753.516 36.674 L 753.516 44.486 L 714.6 44.486 L 714.6 74.369 L 759.521 74.369 L 759.521 82.572 L 705.518 82.572 Z M 308.594 70.658 L 314.209 64.164 A 33.45 33.45 0 0 0 338.559 75.837 A 41.892 41.892 0 0 0 340.527 75.883 A 32.26 32.26 0 0 0 345.322 75.549 Q 350.198 74.815 353.32 72.465 A 12.845 12.845 0 0 0 357.2 67.892 Q 358.415 65.43 358.491 62.377 A 16.476 16.476 0 0 0 358.496 61.967 A 14.014 14.014 0 0 0 357.524 56.661 A 12.942 12.942 0 0 0 353.418 51.322 Q 349.268 48.051 339.111 44.584 L 333.789 42.777 A 96.452 96.452 0 0 1 328.674 40.878 Q 323.975 38.969 321.019 37.045 A 21.762 21.762 0 0 1 319.531 35.99 A 16.771 16.771 0 0 1 312.874 23.778 A 21.744 21.744 0 0 1 312.793 21.879 Q 312.793 12.016 319.727 6.254 Q 327.051 0.102 339.16 0.102 A 41.118 41.118 0 0 1 365.381 9.086 L 360.498 16.068 A 30.859 30.859 0 0 0 339.111 7.914 A 28.312 28.312 0 0 0 334.247 8.305 Q 331.614 8.765 329.523 9.766 A 13.402 13.402 0 0 0 326.514 11.723 A 11.235 11.235 0 0 0 322.713 19.143 A 15.922 15.922 0 0 0 322.607 21 A 11.05 11.05 0 0 0 323.529 25.557 A 10.744 10.744 0 0 0 326.074 29.057 Q 329.883 32.621 339.893 35.893 L 345.703 37.797 Q 357.52 41.654 362.793 46.977 A 19.736 19.736 0 0 1 368.602 61.209 A 25.514 25.514 0 0 1 368.604 61.478 A 23.171 23.171 0 0 1 367.329 69.331 A 19.791 19.791 0 0 1 360.254 78.666 A 25.111 25.111 0 0 1 352.253 82.556 Q 348.758 83.584 344.578 83.921 A 52.825 52.825 0 0 1 340.332 84.086 A 47.87 47.87 0 0 1 325.984 82.038 A 37.698 37.698 0 0 1 308.594 70.658 Z M 229.98 65.678 L 235.059 73.295 A 44.274 44.274 0 0 1 205.127 84.184 A 40.297 40.297 0 0 1 189.743 81.33 A 37.532 37.532 0 0 1 175.732 71.195 A 37.715 37.715 0 0 1 167.259 54.032 A 54.722 54.722 0 0 1 166.064 42.289 A 49.709 49.709 0 0 1 168.025 28.082 A 42.011 42.011 0 0 1 173.437 16.557 Q 175.879 12.894 178.955 10.014 Q 189.746 0.004 204.541 0.004 A 45.185 45.185 0 0 1 214.584 1.081 A 37.815 37.815 0 0 1 221.191 3.227 A 37.36 37.36 0 0 1 226.76 6.261 Q 229.958 8.352 233.252 11.283 L 227.588 17.973 Q 222.537 12.794 217.302 10.531 A 22.813 22.813 0 0 0 215.723 9.916 A 29.052 29.052 0 0 0 209.303 8.447 A 36.832 36.832 0 0 0 205.029 8.207 A 28.89 28.89 0 0 0 195.169 9.823 A 24.891 24.891 0 0 0 184.277 17.631 A 35.317 35.317 0 0 0 176.619 35.088 A 47.822 47.822 0 0 0 176.074 42.435 A 42.216 42.216 0 0 0 177.343 53.021 A 32.736 32.736 0 0 0 182.471 64.066 Q 186.279 69.34 192.09 72.514 Q 198.242 75.883 205.029 75.883 A 34.88 34.88 0 0 0 220.916 72.285 A 35.301 35.301 0 0 0 229.98 65.678 Z M 445.313 65.678 L 450.391 73.295 A 44.274 44.274 0 0 1 420.459 84.184 A 40.297 40.297 0 0 1 405.075 81.33 A 37.532 37.532 0 0 1 391.064 71.195 A 37.715 37.715 0 0 1 382.591 54.032 A 54.722 54.722 0 0 1 381.396 42.289 A 49.709 49.709 0 0 1 383.357 28.082 A 42.011 42.011 0 0 1 388.77 16.557 Q 391.211 12.894 394.287 10.014 Q 405.078 0.004 419.873 0.004 A 45.185 45.185 0 0 1 429.916 1.081 A 37.815 37.815 0 0 1 436.523 3.227 A 37.36 37.36 0 0 1 442.092 6.261 Q 445.29 8.352 448.584 11.283 L 442.92 17.973 Q 437.869 12.794 432.634 10.531 A 22.813 22.813 0 0 0 431.055 9.916 A 29.052 29.052 0 0 0 424.635 8.447 A 36.832 36.832 0 0 0 420.361 8.207 A 28.89 28.89 0 0 0 410.501 9.823 A 24.891 24.891 0 0 0 399.609 17.631 A 35.317 35.317 0 0 0 391.951 35.088 A 47.822 47.822 0 0 0 391.406 42.435 A 42.216 42.216 0 0 0 392.675 53.021 A 32.736 32.736 0 0 0 397.803 64.066 Q 401.611 69.34 407.422 72.514 Q 413.574 75.883 420.361 75.883 A 34.88 34.88 0 0 0 436.248 72.285 A 35.301 35.301 0 0 0 445.313 65.678 Z M 775.635 82.572 L 775.635 1.566 L 802.832 1.566 Q 811.526 1.566 817.693 3.787 A 25.134 25.134 0 0 1 822.607 6.156 A 21.22 21.22 0 0 1 828.791 11.89 Q 832.227 16.788 832.227 23.588 A 21.353 21.353 0 0 1 831.135 30.582 A 17.572 17.572 0 0 1 824.463 39.31 A 19.564 19.564 0 0 1 821.131 41.191 Q 817.496 42.838 811.999 44.01 A 79.999 79.999 0 0 1 810.107 44.389 L 810.107 44.73 A 22.802 22.802 0 0 1 819.538 50.897 A 31.452 31.452 0 0 1 823.047 55.424 Q 828.516 63.981 836.217 79.231 A 607.419 607.419 0 0 1 837.891 82.572 L 826.611 82.572 A 298.303 298.303 0 0 0 822.349 73.129 Q 816.1 59.955 811.572 54.691 A 20.994 20.994 0 0 0 796.252 47.363 A 28.841 28.841 0 0 0 794.629 47.318 L 784.814 47.318 L 784.814 82.572 L 775.635 82.572 Z M 456.689 82.572 L 488.77 1.176 L 498.193 1.176 L 530.273 82.572 L 520.068 82.572 L 510.986 58.695 L 475.977 58.695 L 466.895 82.572 L 456.689 82.572 Z M 0 82.572 L 0 1.566 L 24.268 1.566 Q 37.925 1.566 47.498 6.119 A 36.311 36.311 0 0 1 52.051 8.695 A 34.245 34.245 0 0 1 63.33 20.853 A 40.454 40.454 0 0 1 67.962 35.417 A 51.393 51.393 0 0 1 68.359 41.898 A 49.894 49.894 0 0 1 66.973 53.941 A 37.806 37.806 0 0 1 60.986 67.045 Q 51.131 80.73 29.519 82.354 A 80.557 80.557 0 0 1 23.486 82.572 L 0 82.572 Z M 131.914 2.819 A 37.367 37.367 0 0 0 117.334 0.004 A 46.587 46.587 0 0 0 115.894 0.026 A 35.815 35.815 0 0 0 91.357 10.062 A 38.55 38.55 0 0 0 80.699 28.117 A 52.721 52.721 0 0 0 78.955 42.045 A 58.025 58.025 0 0 0 79.054 45.45 A 49.66 49.66 0 0 0 81.348 57.914 A 45.21 45.21 0 0 0 82.288 60.584 A 36.527 36.527 0 0 0 93.945 76.518 A 34.968 34.968 0 0 0 103.995 82.052 A 39.357 39.357 0 0 0 117.139 84.184 A 44.519 44.519 0 0 0 119.275 84.133 A 37.556 37.556 0 0 0 135.107 79.935 Q 144.775 74.857 150.098 64.799 Q 155.371 54.838 155.371 42.045 A 56.828 56.828 0 0 0 155.211 37.742 A 47.654 47.654 0 0 0 152.246 24.223 A 45.492 45.492 0 0 0 151.458 22.32 A 36.772 36.772 0 0 0 137.793 5.961 A 35.728 35.728 0 0 0 131.914 2.819 Z M 23.486 9.574 L 9.18 9.574 L 9.18 74.467 L 22.9 74.467 A 56.602 56.602 0 0 0 32.468 73.705 Q 39.868 72.434 45.361 69.047 A 25.699 25.699 0 0 0 55.607 57.039 A 31.256 31.256 0 0 0 55.713 56.791 A 34.476 34.476 0 0 0 58.063 47.987 A 44.385 44.385 0 0 0 58.447 42.045 Q 58.447 28.259 51.829 20.276 A 25.359 25.359 0 0 0 45.361 14.75 A 33.404 33.404 0 0 0 35.961 10.95 Q 30.36 9.574 23.486 9.574 Z M 117.041 7.914 Q 107.91 7.914 100.879 13.529 A 30.073 30.073 0 0 0 90.459 30.083 Q 89.063 35.514 89.063 42.094 A 48.502 48.502 0 0 0 89.924 51.45 A 36.292 36.292 0 0 0 93.115 60.893 A 28.849 28.849 0 0 0 98.544 68.425 A 26.426 26.426 0 0 0 101.709 71.098 Q 108.447 75.98 117.188 75.98 A 26.703 26.703 0 0 0 128.117 73.802 Q 133.691 71.334 137.867 66.069 A 32.178 32.178 0 0 0 138.135 65.727 A 32.848 32.848 0 0 0 144.17 52.605 Q 145.247 47.829 145.263 42.27 A 58.431 58.431 0 0 0 145.264 42.094 A 48.176 48.176 0 0 0 144.162 31.5 A 33.146 33.146 0 0 0 137.744 17.826 Q 129.785 7.914 117.041 7.914 Z M 801.221 9.281 L 784.814 9.281 L 784.814 39.896 L 799.609 39.896 A 45.598 45.598 0 0 0 805.929 39.486 Q 809.11 39.04 811.73 38.109 A 20.468 20.468 0 0 0 815.918 36.088 A 13.007 13.007 0 0 0 822.108 26.745 A 17.864 17.864 0 0 0 822.314 23.978 A 14.183 14.183 0 0 0 820.552 16.71 Q 816.217 9.281 801.221 9.281 Z M 478.711 50.98 L 508.301 50.98 L 499.805 28.568 A 321.333 321.333 0 0 1 497.684 22.977 Q 495.598 17.31 494.446 13.367 A 61.66 61.66 0 0 1 493.701 10.6 L 493.311 10.6 A 72.971 72.971 0 0 1 492.38 13.865 Q 491.242 17.568 489.298 22.932 A 425.731 425.731 0 0 1 487.207 28.568 L 478.711 50.98 Z M 247.119 82.572 L 247.119 68.559 L 261.133 68.559 L 261.133 82.572 L 247.119 82.572 Z"/></g></svg>